<svg width="24" height="24" viewBox="0 0 24 24" fill="none" xmlns="http://www.w3.org/2000/svg">
<path d="M20.684 4.042C20.8373 3.99748 20.9989 3.98923 21.1559 4.01791C21.3129 4.0466 21.4611 4.11142 21.5888 4.20727C21.7165 4.30311 21.8201 4.42734 21.8914 4.57013C21.9628 4.71293 22 4.87037 22 5.03L21.999 10.742C21.9987 10.933 21.9452 11.1202 21.8447 11.2826C21.7441 11.445 21.6003 11.5762 21.4294 11.6616C21.2585 11.747 21.0673 11.7832 20.877 11.7661C20.6867 11.7491 20.505 11.6794 20.352 11.565L18.71 10.33L14.53 15.898C14.2864 16.222 13.9319 16.4449 13.5343 16.5238C13.1367 16.6028 12.7239 16.5324 12.375 16.326L12.225 16.226L8.88801 13.719L4.47001 19.604C4.05001 20.164 3.28501 20.311 2.69301 19.972L2.54901 19.877C2.28207 19.6764 2.09743 19.3854 2.02968 19.0585C1.96194 18.7315 2.01574 18.3911 2.18101 18.101L2.27601 17.957L7.35301 11.195C7.59648 10.8705 7.95119 10.6474 8.3491 10.5684C8.747 10.4894 9.16005 10.5601 9.50901 10.767L9.65801 10.867L12.994 13.373L16.516 8.683L14.869 7.446C14.7264 7.33848 14.6143 7.19574 14.5435 7.03179C14.4728 6.86784 14.4459 6.68831 14.4654 6.51082C14.485 6.33334 14.5504 6.16398 14.6551 6.01938C14.7599 5.87478 14.9004 5.75989 15.063 5.686L15.2 5.636L20.685 4.041L20.684 4.042Z" fill="currentColor"/>
</svg>
