<svg width="24" height="24" viewBox="0 0 24 24" fill="none" xmlns="http://www.w3.org/2000/svg">
<path fill-rule="evenodd" clip-rule="evenodd" d="M19.186 2.09C19.707 2.34 20.322 2.702 20.811 3.191C21.301 3.681 21.663 4.295 21.911 4.816C22.224 5.47 22.021 6.224 21.51 6.736L14.296 13.949C13.986 14.259 13.608 14.49 13.191 14.624L8.969 15.977C8.83768 16.0191 8.6973 16.0242 8.56327 15.9917C8.42924 15.9593 8.30677 15.8905 8.2093 15.7929C8.11184 15.6953 8.04316 15.5728 8.01083 15.4387C7.97849 15.3047 7.98374 15.1643 8.026 15.033L9.379 10.812C9.51255 10.3953 9.74362 10.0165 10.053 9.707L17.267 2.493C17.779 1.981 18.533 1.779 19.187 2.091L19.186 2.09ZM19.397 4.606C19.15 4.37265 18.8712 4.17537 18.569 4.02L11.575 11.014C11.5039 11.085 11.4439 11.1662 11.397 11.255L9.9 14.102L12.746 12.606C12.836 12.559 12.917 12.499 12.988 12.428L19.982 5.434C19.8266 5.1318 19.6303 4.85305 19.397 4.606ZM4.999 5.5C4.99879 5.37227 5.04746 5.2493 5.13505 5.15632C5.22263 5.06334 5.34248 5.00741 5.47 5L11 5.005C11.2652 5.005 11.5196 4.89965 11.7071 4.71211C11.8946 4.52457 12 4.27022 12 4.005C12 3.73979 11.8946 3.48543 11.7071 3.2979C11.5196 3.11036 11.2652 3.005 11 3.005L5.5 3C4.83696 3 4.20107 3.26339 3.73223 3.73224C3.26339 4.20108 3 4.83696 3 5.5V18.077C3 18.837 3.082 19.262 3.319 19.704C3.543 20.123 3.877 20.458 4.296 20.682C4.738 20.918 5.162 21 5.923 21H18.077C18.837 21 19.262 20.918 19.704 20.682C20.124 20.458 20.458 20.123 20.682 19.704C20.918 19.262 21 18.838 21 18.077V13C21 12.7348 20.8946 12.4804 20.7071 12.2929C20.5196 12.1054 20.2652 12 20 12C19.7348 12 19.4804 12.1054 19.2929 12.2929C19.1054 12.4804 19 12.7348 19 13V18.077C19 18.536 18.979 18.648 18.918 18.761C18.8833 18.8284 18.8284 18.8833 18.761 18.918C18.648 18.978 18.536 19 18.077 19H5.923C5.464 19 5.353 18.978 5.239 18.918C5.17155 18.8834 5.11665 18.8284 5.082 18.761C5.022 18.648 5 18.536 5 18.077L4.999 5.5Z" fill="currentColor"/>
</svg>
