<svg width="24" height="24" viewBox="0 0 24 24" fill="none" xmlns="http://www.w3.org/2000/svg">
<path fill-rule="evenodd" clip-rule="evenodd" d="M11.74 1.97C6.52 1.97 2.717 5.483 1.98 10.59C1.928 10.956 2.092 11.263 2.396 11.31C2.696 11.357 2.95 11.122 3.012 10.772C3.735 6.704 7.285 3.99 11.741 3.99C16.597 3.99 19.981 7.374 19.981 12.23C19.981 16.496 17.055 20.195 13.186 20.954C12.836 21.024 12.603 21.281 12.654 21.58C12.704 21.883 13.011 22.047 13.376 21.995C18.481 21.271 22.001 17.457 22.001 12.23C22.001 6.211 17.759 1.97 11.741 1.97H11.74ZM8.69 12.156C9.188 11.534 9.78 10.856 10.48 10.171C13.15 7.478 16.124 7.314 16.396 7.602C16.692 7.882 16.513 10.833 13.828 13.534C13.143 14.234 12.473 14.826 11.843 15.324V17.318C11.843 17.998 11.843 18.035 11.375 18.384C11.325 18.421 11.245 18.484 11.137 18.567C10.678 18.923 9.745 19.647 8.76 20.252C8.464 20.432 8.215 20.283 8.41 20.019C8.84975 19.415 9.21788 18.7619 9.507 18.073C9.725 17.559 9.725 17.092 9.507 16.687C8.729 16.937 8.09 16.858 7.616 16.399C7.133 15.932 7.071 15.278 7.32 14.492C7.1022 14.3843 6.86249 14.3282 6.6195 14.3282C6.37651 14.3282 6.1368 14.3843 5.919 14.492C5.327 14.71 4.689 15.083 3.972 15.582C3.692 15.784 3.544 15.535 3.739 15.239C4.369 14.193 5.145 13.215 5.482 12.791L5.607 12.631C5.957 12.164 5.997 12.164 6.775 12.164H8.667L8.69 12.156ZM6.3 16.36C6.342 16.406 6.216 16.507 6.01 16.674C5.445 17.131 4.276 18.077 4.276 19.707C5.914 19.707 6.862 18.553 7.321 17.994C7.49 17.788 7.593 17.663 7.639 17.707C7.795 17.862 7.273 19.131 6.378 20.019C5.86917 20.5205 5.26176 20.9109 4.59423 21.1655C3.92669 21.4201 3.21356 21.5333 2.5 21.498C2.5 19.708 3.084 18.508 3.98 17.621C4.874 16.726 6.136 16.204 6.299 16.376V16.36H6.3Z" fill="currentColor"/>
</svg>
